<?xml version="1.0" encoding="UTF-8"?>
<svg id="b" data-name="Layer 2" xmlns="http://www.w3.org/2000/svg" width="287.34" height="340.45" viewBox="0 0 287.34 340.45">
  <defs>
    <style>
      .d {
        fill: #e24d2b;
      }

      .e {
        fill: #f6a738;
      }

      .f {
        fill: #e96923;
      }

      .g {
        fill: #fef5d6;
      }

      .h {
        fill: #0e5778;
      }

      .i {
        fill: #02394f;
      }
    </style>
  </defs>
  <g id="c" data-name="Layer 1">
    <g>
      <path class="i" d="M108.19,43.2c1.15-.61,2.37-1.18,3.71-1.12-1.24-4.06-.04-8.84,4.7-9.54.39-.06.91.24,1.39.2,1.31-.1,2.59-.8,3.95.05-1.49-3.7-3.7-8.75-1.11-12.45,4.12-5.9,12.68-1.81,17.44,1.15,5.1,3.17,10.04,7.84,13.42,12.79.33,0,.56.21.73-.22.79-1.97.14-3.59,2.72-5.06,5.69-3.23,11.21,4.93,13.94,8.88.46.66,1.84,3.59,2.02,3.74.61.5,3.12.49,3.99,1.21,2.39-9.93,4.51-20.32,7.71-30.02,1.91-5.81,3.63-13.7,11.45-12.73,5.53.69,12.72,11.54,14.84,16.37,8.03,18.22,2.83,37.57-10.76,51.29-.74.75-2.32,1.33-2.43,2.42-.03.26,1.14,4.81,1.3,5.01.36.47,2.52.56,3.54,1.66,1.88,2.03,1.89,7.47.45,9.76-1.05,1.67-3.49,1.72-3.81,2.22-.69,1.08.16,6.18-.68,7.75,1.77,4.68,4.41,9.23,6.07,13.93,1.75,4.98,3.83,11.29-3.17,12.85.35,5.99-.19,11.87-.72,17.8-.4,4.47-.99,16.77-5.44,19.09-.69.36-1.91.36-1.98.43-.2.2-.1,5.18.05,5.68.17.57,1.82,1.6,2.41,2.05,2.61,1.97,8.32,6.14,11.02,7.57,21.29,11.26,39.72,9.27,49.96,35.52,7.98,20.46,14.37,59.07,10.02,80.45-3.65,17.94-16.17,28.47-34.03,31.2-.84,4.08,2.06,15.69-3,17.25l-171.46.08c-6.33-1.06-2.59-12.75-3.67-17.33-13.95-2.15-26.54-9.7-32.09-23.1-8.46-20.4-.99-60.57,5.38-81.58,5.72-18.87,10.96-24.87,28.75-32.95,12.35-5.61,24.77-9.23,35.53-17.99l1.12-1.48.79-13.32c-9.11-2.33-7.06-15.66-7.45-22.89-2.59-.26-4.59,1.41-6.26-1.35-2.59-4.27.66-13.21,2.37-17.59,1.05-2.68,6.02-12.13,6.1-13.98.1-2.41-1.1-5.55-.7-8.11-2.87-.78-4.49-1.68-4.86-4.87-.27-2.38-.29-5.62,1.67-7.25,1.03-.86,2.92-1.02,3.1-1.17.21-.18,1.46-5.06,1.43-5.33-.08-.73-3.44-3.12-4.16-3.89-13.47-14.27-17.2-35.78-7.43-53.17,2.23-3.97,8.28-12.42,13.01-13.01,7.4-.92,9.24,6.44,11.07,11.99,3.36,10.15,5.64,20.73,8.08,31.13ZM103.09,52.01c-1.12-1.02-1.79-3.89-2.24-5.38-2.83-9.4-4.56-19.22-7.44-28.61-.47-1.53-2.18-7.36-2.89-8.26-.34-.43-.52-.48-1.05-.33-1.52.42-6.27,7.55-7.13,9.24-7.2,14.13-3.02,31.99,8.19,42.75.37-.93,1.36-2.12,1.29-3.13-.06-.92-3.03-6.21-3.62-7.93-.82-2.39-1.77-5.95-1.97-8.44-.15-1.88-.25-8.66.43-10,2.73-5.36,6.62,5.05,7.45,6.95,1.52,3.48,6.51,15.15,6.65,18.27.12,2.65-2.98,8.07-4.03,10.87-.3.81-2.18,6.18-1.94,6.42.83,0,1.56-.36,2.4-.39,6.02-.21,12.97-.23,18.99,0,3.91.15,14.7.63,17.27,3.54.47.53.76,1.86,1.33,1.99.45.11,3.36-.66,4.41-.7,1.85-.07,4.12-.09,5.96.02.85.05,2.86.78,3.32.67.55-.13.88-1.46,1.33-1.99,1.44-1.69,5.14-2.41,7.31-2.73,10.21-1.52,21.04-.46,31.36-.8.08-1.23-.46-2.32-.84-3.43-1.13-3.32-4.49-9.3-5.02-12.08-.2-1.03-.1-1.72.08-2.72.77-4.22,5.68-15.54,7.69-19.81.44-.94,2.09-4.5,2.65-4.96,1.49-1.23,3.59-.28,3.96,1.58,1.44,7.25-.98,16.99-4.36,23.47-.51.98-1.33,1.06-1.19,2.49.03.33,1.16,2.89,1.3,2.82,13.46-12.29,16.49-35.25,3.91-49.25-.6-.66-2.93-3.29-3.71-2.76-1.74,4.22-3.02,8.61-4.29,12.99-2.35,8.1-4.04,19.8-7.07,27.12-2.29,5.55-7.42,1.61-11.42.28-1.13-.38-4.05-.76-4.73-1.21-.72-.48-.95-2.78-1.43-3.77-.43-.89-3.35-5.42-3.97-5.69-.79-.33-.49.56-.54.93-.42,3.23-1.55,8.57-5.77,8.38-2.44-.11-4.16-4.44-5.61-6.31-5.09-6.58-11.84-13.65-19.85-16.38-.51.54,2.35,6.35,2.91,7.31,1.92,3.3,7.65,7.85,4.73,11.66-2.48,3.24-3.92.76-5.88-.47-2.98-1.88-6.4-3.25-9.93-3.63-.49,1.74,3.06,6.48,1.87,7.62-.56.53-6.54,1.06-8.19,1.49-3.12.81-8.17,4.58-10.67,2.3ZM117.85,81.49h-16.54c-.42,0-3.68.8-4.17,1.04-1.39.67-2.46,2.36-2.89,3.8-1.03,3.41-.21,10.1,1.01,13.48.5,1.39,2.09,4.79,3.84,4.73l18.75-23.05ZM180.29,81.49h-16.17c-3.57,0-6.92,1.55-7.26,5.37-.37,4.23,2.38,13.07,5.56,15.94.35.32.44.31.94.26l16.93-21.57ZM148.99,87.88c-1.14-1.57-13.19-1.59-14.34,0-.28.38-1.45,6.39-1.84,7.64-3.44,11.14-9.21,16.41-21.1,17.18-6.73.44-14.89-.06-20.07-4.82-2.83,3.79-4.16,8.43-5.76,12.82l5.43-1.64c3.33-.13,1.32,4.7,1.24,6.83-.21,5.28-.08,10.95.39,16.18,1.99-1.18,3.71-5.19,6.32-3.07.64,4.77.86,9.6.76,14.42-.07,3.23-.91,7.66-.8,10.77.02.54,0,1.07.39,1.5,7.6,7.1,16.17,13.19,25.29,18.2,11.24,6.17,15.67,8.54,28.02,2.73,7.24-3.41,15.48-8.59,21.76-13.55,1.53-1.21,8.19-6.69,8.77-7.96,1.61-3.55-4.32-21.73,6.51-13.37.41-4.34,1.7-8.62,1.49-13.01-1.61,2.1-4.95,2.9-6.67,4.29-1.13.91-1.31,1.94-2.97,2.97-6.69,4.14-16.63,2.56-14.35-7.28,1.16-5.03,12.37-6.72,15.65-4.07,1.45,1.17.25,2.3,2.58.37,3.18-2.62,6.04-6.96,5.31-11.24-.24-1.39-1.32-2.65-1.41-4.19-.2-3.41,3.37-4.98,6.33-4.64l-3.35-7.8c-6.67,6.56-19.07,6.73-27.58,4.35-7.77-2.18-11.85-8.17-14.14-15.59-.42-1.37-1.52-7.58-1.84-8.01ZM154.27,193.73l15.05,17.46c6.27-12.36,11.8-25.49,15.05-39.02-6.77,7.5-15.15,13.61-23.91,18.65-1.95,1.12-3.98,2.48-6.2,2.91ZM128.99,194.47c-2.96-2.16-6.58-3.69-9.78-5.64-7.4-4.51-14.52-9.83-20.32-16.28,3.53,12.94,8.38,25.53,14.31,37.55.16.32.18.75.18,1.11l15.6-16.73ZM125.28,250.6c.07-.66-.39-1.17-.68-1.73-8.99-17.26-18.78-31.99-25.98-50.58-2.81-7.25-4.88-14.84-7.71-22.01-1.57,1.72-5.87,3.46-7.03,5.23-.89,1.36-1.78,4.86-2.34,6.58-.49,1.51-2.71,8.45-2.15,9.37,1.21,1.99,13.45,4.27,13.9,5.82.62,2.15-7.07,7.98-8.51,9.98-.37.51-.88,1.07-.7,1.78,6.38,7.89,11.92,16.54,18.54,24.22,2.04,2.36,5.68,6.77,8.45,7.9,1.42.58,13.68,3.95,14.21,3.44ZM175.7,245.27c8.66-9.36,15.48-20.34,23.49-30.25.24-.6,0-.94-.3-1.42-.96-1.61-4.85-4.52-6.35-6.29-.78-.92-2.55-2.75-2.05-3.9.8-1.82,8.43-3.38,10.6-4.3,1.26-.53,3.35-1.24,2.92-2.87l-4.44-14.18c-1.93-2.33-4.72-3.76-7.2-5.43-.35.21-.44.55-.59.89-2.61,6.01-4.27,13.98-6.75,20.38-5.04,12.97-12.66,27.39-19.54,39.56-3.58,6.33-7.53,12.51-11.58,18.52,2.34.54,5.35,1.74,7.7,1.01,3.29-1.02,11.5-8.93,14.1-11.73ZM144.54,197.17c-1.38.07-7.55.18-8.11.46-.39.19-5.46,6.32-5.5,6.75.57,1.21,3.86,6.59,4.76,7,.63.29,11.28.38,12.01.13l4.53-5.89c.68-1.44-2.65-4.83-3.72-5.94-1.35-1.41-1.94-2.6-3.98-2.5ZM125.65,233.87l4.36-18.84c0-1.22-3-4.49-3.8-5.68l-8.37,10.23,6.98,13.82c-.1.58.7.63.83.48ZM157.62,233.87l7.67-14.31-8.23-10.21c-.7,1.24-3.81,4.53-3.8,5.68l4.36,18.84ZM137.04,216.82c-.3.1-.48.26-.54.58-1.52,8.81-4.43,17.41-5.57,26.23.11.49,4.9,8.17,5.3,8.47.42.32,8.86,2.17,9.34,2.09,2.47-3.54,5.17-7.29,6.88-11.22l-5.95-26.04c-.39-.27-8.79-.34-9.45-.12ZM214.39,221.68c-.73.06-1.82.58-2.05,1.32l-3.02,15.87c1.82.96,3.89,2.27,4.69-.44s2.57-11.42,2.7-14.05c.08-1.59-.61-2.85-2.33-2.7ZM67.57,226.88c-1.53.43-1.45,2.19-1.34,3.42.45,5.23,3.04,17.02,4.59,22.17.21.7.55,2.24,1.48,2.24.77,0,3.33-1.97,2.78-3.11l-4.78-23.51c-.34-1.09-1.71-1.5-2.74-1.2ZM169.88,259.89l45.7,11.36c3.19.87,6.14-.56,3.9-3.9-2.58-3.87-12.16-8.32-16.61-9.78-1.79-.59-5.44-1.04-6.74-1.81-1.74-1.03-1.94-4.14.03-4.71,4.58-1.31,14.83,3.03,18.94,5.43,1.68.98,6.84,5.39,7.83,5.58,3.15.62,4.05-3.74,2.57-6.32-3.21-5.56-19.06-11.79-25.33-12.21-12.33-.83-22.35,8.1-30.29,16.34ZM78.21,255.19c-1.62,1.6-3.69,4.53-4.78,6.55-.64,1.19-3.14,5.99-2.04,6.89l37.75,11.71c.51.05.66-.23.83-.64.58-1.34.93-4.59,1.46-6.34,1.87-6.11,4.32-12.3,8.27-17.37-.24-.42-.57-.41-.93-.55-4.75-1.85-13.17-3.91-18.31-5.11-8.53-1.99-15.73-1.6-22.25,4.86ZM133.83,258.41c-1.98.03-5.54-2.05-7.2-1.08-1.4.82-5.94,8.9-6.74,10.74-1.55,3.57-4.05,12.11-3.55,15.82.29,2.14,3.86,3.17,5.19,4.84l1.14.16c-.47-11.3,4.2-21.84,11.15-30.47ZM221.83,324.28c-.6-.6-9.73-.65-11.62-.83-29.23-2.8-57.78-15.27-84.09-27.43-1.15-.59-2.93,1-3,2.03-.08,1.21,1.9,2.18,2.78,2.67,5.97,3.34,14.85,6.86,21.32,9.53,18.52,7.64,44.52,16.5,64.46,17.68,1.72.1,8.6.24,9.78-.26.99-.43,1.09-2.66.37-3.38ZM134.86,310.16c-.9-.91-4.49.22-5.79.53-18.27,4.33-34.39,9.72-53.45,11.97-1.77.21-12.28.56-12.71,1.23-.7,1.09-.44,3.32,1.25,3.64,2.12.41,7.6-.15,10.02-.37,20.24-1.84,40.54-8.19,60.03-13.56,1.45-.15,1.4-2.68.65-3.45Z"/>
      <path class="f" d="M13.41,148.02c-.35.49,2.43,3.02,2.97,3.53,7.69,7.19,16.96,13.46,24.92,20.43,3.46,4.33-2.26,10.01-6.68,7.06-9.93-9.36-22.46-17.16-32.36-26.37-1.99-1.85-3.03-3.32-1.56-6.03,11.06-10.03,22.85-19.42,34.34-29,1.39.27,2.35-.27,3.82.28,2.81,1.04,3.82,5.23,1.88,7.43-8.62,7.62-18.05,14.4-26.4,22.3-.24.22-.59.34-.92.37Z"/>
      <path class="f" d="M262.43,126.09c8.24,6.35,15.98,13.4,23.99,20.06,1.2,1.51,1.22,3.41.11,4.97-9.22,7.97-18.8,15.66-28.22,23.44-4.43,2.28-9.03-2.81-6.28-7.02l21.92-18.95c-5.29-5.21-11.46-9.44-16.72-14.68-.04-.04.09-.43-.09-.64-.5-.56-1.91-1.08-2.51-1.77-1.46-1.68-1.35-4.13-.74-6.14.1-.12.24-.28.37-.37,1.4-1.01,3.71-1.46,5.3-.65l2.88,1.77Z"/>
      <path class="f" d="M248.68,110.85c.8.84,1.45,1.48,1.51,2.79.03.76-.86,3.79-1.51,3.9-.03,0-.12-.59-.37-.37-.35.32-3.1,7.71-3.56,8.9-.21.54-1.05.54.21,1.14-6.29,15.08-12.51,32.21-19.63,46.71-.44.89-.86,2.04-1.55,2.72-.81-.75-1.18.67-2.41.78-1.39.12-2.43-.92-3.54-.41-.45-.28-.46-.39-.74-.74l-.75-3.17.75-3.9c.74-1.99,6.84-17.71,7.81-17.84.03,0,.2.33.36.38,5.37-13.61,11.26-27.01,16.94-40.5,1.88-2.09,4.22-1.5,6.48-.39Z"/>
      <path class="d" d="M248.68,110.85c-2.27-1.11-4.6-1.7-6.48.39-5.68,13.48-11.57,26.89-16.94,40.5-.16-.05-.33-.38-.36-.38,5.04-13.32,11-26.33,16.41-39.53,1.96-2.79,4.85-3.64,7.38-.98Z"/>
      <path class="d" d="M248.68,117.54c-.76,3.35-2.4,6.5-3.72,9.66-1.26-.6-.42-.6-.21-1.14.46-1.19,3.21-8.58,3.56-8.9.24-.22.34.38.37.37Z"/>
      <path class="d" d="M253.88,125.34c-.61,2.01-.72,4.46.74,6.14.6.69,2.01,1.21,2.51,1.77.18.2.05.59.09.64-3.05-1.75-6.2-5.08-3.35-8.55Z"/>
      <path class="d" d="M217.08,176.26c-2.1-2.6-.99-4.39,0-7.06l-.75,3.9.75,3.17Z"/>
      <path class="d" d="M262.43,126.09l-2.88-1.77c-1.59-.81-3.9-.35-5.3.65,3.22-3.37,5.52-.93,8.18,1.12Z"/>
      <path class="d" d="M223.77,176.63c-1.57,1.54-4.2,1.48-5.95.37,1.11-.52,2.15.52,3.54.41,1.23-.1,1.6-1.53,2.41-.78Z"/>
      <path class="e" d="M148.99,87.88c.31.43,1.41,6.64,1.84,8.01,2.29,7.42,6.37,13.42,14.14,15.59,8.51,2.38,20.91,2.2,27.58-4.35l3.35,7.8c-2.96-.34-6.54,1.23-6.33,4.64.09,1.53,1.17,2.79,1.41,4.19.73,4.28-2.13,8.61-5.31,11.24-2.33,1.92-1.13.8-2.58-.37-3.28-2.65-14.48-.95-15.65,4.07-2.28,9.85,7.66,11.42,14.35,7.28,1.66-1.03,1.85-2.06,2.97-2.97,1.72-1.39,5.07-2.19,6.67-4.29.21,4.39-1.07,8.67-1.49,13.01-10.83-8.36-4.89,9.82-6.51,13.37-.58,1.27-7.23,6.75-8.77,7.96-6.28,4.96-14.51,10.15-21.76,13.55-12.35,5.81-16.78,3.45-28.02-2.73-9.11-5.01-17.69-11.09-25.29-18.2-.39-.44-.37-.96-.39-1.5-.12-3.11.73-7.54.8-10.77.1-4.82-.12-9.65-.76-14.42-2.6-2.13-4.33,1.89-6.32,3.07-.47-5.23-.6-10.9-.39-16.18.08-2.12,2.1-6.96-1.24-6.83l-5.43,1.64c1.6-4.39,2.93-9.03,5.76-12.82,5.18,4.76,13.34,5.26,20.07,4.82,11.89-.77,17.66-6.04,21.1-17.18.38-1.25,1.56-7.26,1.84-7.64,1.15-1.59,13.21-1.57,14.34,0ZM144.49,120.27c-.18-2.28.2-2.25.49-2.73.32-.45,3.47-3.23,3.96-3.27.86-.08,1.58,1.01,2.34,1.24,3.1.95,6.65-1.01,5.13-4.38-3.73-8.3-25.64-8.44-29.17,0-1.39,3.33,1.94,5.33,5.12,4.37.66-.2,2.18-1.63,2.4-1.62.4,0,4.17,4,4.29,4.93.31,2.33.29,9.4-1.12,11.18-3.59,4.52-10.87.66-12.6,3.75-.98,1.75-.34,3.95,1.54,4.69.62.25,3.79.65,4.57.66,3.72.05,7.58-1.24,10.07-4.07,3.64,2.92,7.14,4.03,11.86,3.71,2.31-.16,5.01-.48,5.18-3.31.35-5.98-9.84-1.13-13.02-5.6-.69-.97-.61-.83-.8-1.59-.08-.3-.1-.64-.1-.66-.09-.68.04-1.51,0-2.23M154.19,155.53c-1.25-2.2-4.72.96-6.24,1.59-5.61,2.33-12.18,1.65-17.43-1.14-.52-.27-.86-.94-1.38-1.22-2.65-1.41-4.1.98-3.08,3.38,3.51,8.29,15.8,10.95,23.14,6.18,2.06-1.34,6.49-6.15,4.99-8.78Z"/>
      <path class="e" d="M103.09,52.01c2.5,2.28,7.55-1.48,10.67-2.3,1.64-.43,7.63-.95,8.19-1.49,1.19-1.14-2.36-5.88-1.87-7.62,3.53.38,6.95,1.75,9.93,3.63,1.96,1.24,3.4,3.71,5.88.47,2.92-3.82-2.8-8.36-4.73-11.66-.56-.96-3.42-6.77-2.91-7.31,8.01,2.74,14.76,9.81,19.85,16.38,1.45,1.87,3.17,6.2,5.61,6.31,4.22.19,5.35-5.15,5.77-8.38.05-.37-.25-1.27.54-.93.63.27,3.54,4.8,3.97,5.69.48.99.71,3.29,1.43,3.77.68.46,3.6.84,4.73,1.21,4,1.33,9.12,5.27,11.42-.28,3.03-7.32,4.72-19.03,7.07-27.12,1.27-4.38,2.56-8.77,4.29-12.99.78-.53,3.11,2.1,3.71,2.76,12.58,14,9.55,36.97-3.91,49.25-.14.06-1.27-2.49-1.3-2.82-.13-1.43.68-1.51,1.19-2.49,3.38-6.48,5.81-16.22,4.36-23.47-.37-1.86-2.47-2.81-3.96-1.58-.56.46-2.21,4.02-2.65,4.96-2.01,4.28-6.91,15.59-7.69,19.81-.18,1-.28,1.69-.08,2.72.53,2.78,3.89,8.76,5.02,12.08.38,1.12.91,2.21.84,3.43-10.31.34-21.15-.73-31.36.8-2.16.32-5.86,1.04-7.31,2.73-.45.52-.77,1.86-1.33,1.99-.46.11-2.47-.62-3.32-.67-1.84-.12-4.11-.1-5.96-.02-1.05.04-3.96.8-4.41.7-.56-.13-.86-1.46-1.33-1.99-2.57-2.92-13.36-3.39-17.27-3.54-6.02-.23-12.97-.21-18.99,0-.84.03-1.57.38-2.4.39-.24-.24,1.64-5.6,1.94-6.42,1.05-2.81,4.15-8.22,4.03-10.87-.14-3.12-5.13-14.79-6.65-18.27-.83-1.9-4.72-12.31-7.45-6.95-.68,1.34-.58,8.12-.43,10,.2,2.49,1.15,6.05,1.97,8.44.59,1.71,3.56,7.01,3.62,7.93.06,1.01-.92,2.2-1.29,3.13-11.21-10.75-15.38-28.62-8.19-42.75.86-1.68,5.61-8.81,7.13-9.24.53-.15.71-.09,1.05.33.71.9,2.42,6.72,2.89,8.26,2.88,9.39,4.61,19.21,7.44,28.61.45,1.49,1.12,4.36,2.24,5.38Z"/>
      <path class="h" d="M175.7,245.27c-2.59,2.8-10.81,10.71-14.1,11.73-2.35.73-5.36-.47-7.7-1.01,4.06-6.02,8.01-12.2,11.58-18.52,6.88-12.16,14.5-26.58,19.54-39.56,2.49-6.4,4.15-14.37,6.75-20.38.15-.34.24-.68.59-.89,2.48,1.67,5.27,3.09,7.2,5.43l4.44,14.18c.43,1.63-1.66,2.33-2.92,2.87-2.16.92-9.79,2.48-10.6,4.3-.51,1.15,1.27,2.98,2.05,3.9,1.5,1.77,5.38,4.67,6.35,6.29.29.48.53.83.3,1.42-8.01,9.9-14.83,20.88-23.49,30.25Z"/>
      <path class="h" d="M125.28,250.6c-.53.51-12.79-2.86-14.21-3.44-2.77-1.13-6.41-5.54-8.45-7.9-6.63-7.69-12.17-16.34-18.54-24.22-.19-.71.33-1.27.7-1.78,1.43-2,9.13-7.83,8.51-9.98-.45-1.56-12.69-3.83-13.9-5.82-.56-.92,1.67-7.85,2.15-9.37.56-1.73,1.45-5.22,2.34-6.58,1.16-1.77,5.46-3.51,7.03-5.23,2.83,7.18,4.91,14.77,7.71,22.01,7.2,18.6,16.99,33.32,25.98,50.58.29.56.75,1.07.68,1.73Z"/>
      <path class="e" d="M78.21,255.19c6.52-6.46,13.73-6.85,22.25-4.86,5.14,1.2,13.56,3.25,18.31,5.11.36.14.69.13.93.55-3.95,5.07-6.4,11.26-8.27,17.37-.54,1.75-.88,5-1.46,6.34-.18.41-.32.69-.83.64l-37.75-11.71c-1.09-.89,1.4-5.7,2.04-6.89,1.09-2.02,3.16-4.95,4.78-6.55Z"/>
      <path class="e" d="M169.88,259.89c7.93-8.24,17.95-17.18,30.29-16.34,6.27.42,22.12,6.65,25.33,12.21,1.49,2.57.58,6.94-2.57,6.32-.98-.2-6.15-4.6-7.83-5.58-4.11-2.4-14.37-6.74-18.94-5.43-1.97.56-1.77,3.68-.03,4.71,1.31.77,4.95,1.22,6.74,1.81,4.45,1.46,14.03,5.91,16.61,9.78,2.23,3.35-.72,4.77-3.9,3.9l-45.7-11.36Z"/>
      <path class="d" d="M137.04,216.82c.66-.22,9.06-.16,9.45.12l5.95,26.04c-1.71,3.93-4.4,7.67-6.88,11.22-.47.08-8.92-1.77-9.34-2.09-.4-.3-5.19-7.98-5.3-8.47,1.14-8.83,4.06-17.43,5.57-26.23.06-.32.24-.48.54-.58Z"/>
      <path class="h" d="M221.83,324.28c.72.72.63,2.96-.37,3.38-1.18.51-8.06.36-9.78.26-19.95-1.18-45.95-10.04-64.46-17.68-6.47-2.67-15.35-6.19-21.32-9.53-.88-.49-2.86-1.46-2.78-2.67.07-1.03,1.85-2.63,3-2.03,26.31,12.16,54.87,24.63,84.09,27.43,1.89.18,11.02.24,11.62.83Z"/>
      <path class="g" d="M154.27,193.73c2.22-.43,4.24-1.79,6.2-2.91,8.75-5.03,17.13-11.15,23.91-18.65-3.25,13.53-8.78,26.65-15.05,39.02l-15.05-17.46Z"/>
      <path class="g" d="M128.99,194.47l-15.6,16.73c0-.36-.03-.79-.18-1.11-5.93-12.01-10.78-24.61-14.31-37.55,5.8,6.45,12.92,11.77,20.32,16.28,3.19,1.95,6.81,3.48,9.78,5.64Z"/>
      <path class="h" d="M134.86,310.16c.75.76.8,3.3-.65,3.45-19.5,5.36-39.79,11.71-60.03,13.56-2.42.22-7.91.77-10.02.37-1.68-.32-1.94-2.55-1.25-3.64.43-.67,10.94-1.02,12.71-1.23,19.05-2.25,35.18-7.64,53.45-11.97,1.31-.31,4.9-1.44,5.79-.53Z"/>
      <path class="h" d="M117.85,81.49l-18.75,23.05c-1.74.05-3.33-3.35-3.84-4.73-1.22-3.38-2.04-10.07-1.01-13.48.43-1.44,1.5-3.13,2.89-3.8.49-.24,3.74-1.04,4.17-1.04h16.54Z"/>
      <path class="h" d="M180.29,81.49l-16.93,21.57c-.5.06-.59.06-.94-.26-3.18-2.86-5.93-11.71-5.56-15.94.34-3.83,3.69-5.37,7.26-5.37h16.17Z"/>
      <path class="d" d="M144.54,197.17c2.03-.1,2.63,1.09,3.98,2.5,1.07,1.12,4.39,4.51,3.72,5.94l-4.53,5.89c-.73.25-11.38.16-12.01-.13-.9-.41-4.19-5.78-4.76-7,.04-.44,5.1-6.56,5.5-6.75.56-.28,6.73-.39,8.11-.46Z"/>
      <path class="g" d="M133.83,258.41c-6.95,8.63-11.62,19.17-11.15,30.47l-1.14-.16c-1.33-1.67-4.9-2.7-5.19-4.84-.5-3.7,2-12.25,3.55-15.82.8-1.84,5.34-9.92,6.74-10.74,1.66-.97,5.22,1.11,7.2,1.08Z"/>
      <path class="g" d="M125.65,233.87c-.13.15-.93.1-.83-.48l-6.98-13.82,8.37-10.23c.8,1.19,3.81,4.46,3.8,5.68l-4.36,18.84Z"/>
      <path class="g" d="M157.62,233.87l-4.36-18.84c-.01-1.16,3.1-4.45,3.8-5.68l8.23,10.21-7.67,14.31Z"/>
      <path class="h" d="M67.57,226.88c1.03-.29,2.39.12,2.74,1.2l4.78,23.51c.55,1.14-2.01,3.1-2.78,3.11-.93,0-1.27-1.53-1.48-2.24-1.55-5.14-4.14-16.94-4.59-22.17-.11-1.23-.18-2.99,1.34-3.42Z"/>
      <path class="h" d="M214.39,221.68c1.71-.15,2.41,1.11,2.33,2.7-.13,2.63-1.92,11.4-2.7,14.05s-2.88,1.4-4.69.44l3.02-15.87c.23-.74,1.32-1.26,2.05-1.32Z"/>
      <path class="i" d="M144.98,117.54c-.65.9-.32,1.56-.37,2.6-.01.25,0,.5,0,.74-.04,1.44-.08,3.03,0,4.46.04.72-.09,1.55,0,2.23l.07.51c.19.76.15.78.84,1.75,3.19,4.47,13.38-.38,13.02,5.6-.17,2.83-2.87,3.15-5.18,3.31-4.71.32-8.21-.79-11.86-3.71-2.49,2.83-6.35,4.12-10.07,4.07-.77,0-3.94-.41-4.57-.66-1.88-.75-2.52-2.95-1.54-4.69,1.74-3.09,9.02.77,12.6-3.75,1.41-1.78,1.44-8.85,1.12-11.18-.12-.94-3.89-4.93-4.29-4.93-.22,0-1.74,1.43-2.4,1.62-3.18.95-6.51-1.04-5.12-4.37,3.53-8.45,25.44-8.31,29.17,0,1.52,3.38-2.03,5.33-5.13,4.38-.76-.23-1.48-1.32-2.34-1.24-.5.04-3.64,2.82-3.96,3.27Z"/>
      <path class="f" d="M154.19,155.53c1.5,2.63-2.93,7.44-4.99,8.78-7.34,4.77-19.62,2.11-23.14-6.18-1.01-2.39.43-4.79,3.08-3.38.52.28.86.95,1.38,1.22,5.25,2.79,11.82,3.47,17.43,1.14,1.51-.63,4.99-3.78,6.24-1.59Z"/>
    </g>
  </g>
</svg>